<svg width="133.8294921875px" height="77.6px" xmlns="http://www.w3.org/2000/svg" viewBox="183.08525390625 36.2 133.8294921875 77.6" style="background: rgba(40, 41, 47, 0);" preserveAspectRatio="xMidYMid"><defs><filter id="editing-cake" x="-100%" y="-100%" width="300%" height="300%"><feFlood flood-color="#ffffff" result="flood-shadow"></feFlood><feFlood flood-color="#f9ae5c"></feFlood><feComposite operator="in" in2="SourceAlpha"></feComposite><feConvolveMatrix order="7,10" divisor="1" result="conv" kernelMatrix="0 0 0 1 0 0 0 0 0 1 0 1 0 0 0 0 1 0 1 0 0 0 1 0 0 0 1 0 0 1 0 0 0 1 0 0 1 0 0 0 1 0 1 0 0 0 0 0 1 1 0 0 0 0 0 1 0 1 1 0 1 1 0 0 0 0 1 0 0 0 "></feConvolveMatrix><feGaussianBlur stdDeviation="0.5"></feGaussianBlur><feOffset dy="4" result="offset"></feOffset><feComposite operator="in" in="flood-shadow" in2="offset"></feComposite><feGaussianBlur stdDeviation="4"></feGaussianBlur><feComponentTransfer><feFuncA type="linear" slope="0.7" intercept="-0.2"></feFuncA></feComponentTransfer><feOffset dy="4" result="shadow"></feOffset><feGaussianBlur in="SourceGraphic" stdDeviation="0.5"></feGaussianBlur><feOffset dy="0" result="x0"></feOffset><feGaussianBlur in="SourceGraphic" stdDeviation="1"></feGaussianBlur><feComponentTransfer><feFuncA type="linear" slope="0.8" intercept="-.01"></feFuncA></feComponentTransfer><feOffset dy="1" result="x1"></feOffset><feGaussianBlur in="SourceGraphic" stdDeviation="2"></feGaussianBlur><feComponentTransfer><feFuncA type="linear" slope="0.7" intercept="-.01"></feFuncA></feComponentTransfer><feOffset dy="2" result="x2"></feOffset><feGaussianBlur in="SourceGraphic" stdDeviation="3"></feGaussianBlur><feComponentTransfer><feFuncA type="linear" slope="0.6" intercept="-.01"></feFuncA></feComponentTransfer><feOffset dy="3" result="x3"></feOffset><feMerge><feMergeNode in="shadow"></feMergeNode><feMergeNode in="offset"></feMergeNode><feMergeNode in="x3"></feMergeNode><feMergeNode in="x2"></feMergeNode><feMergeNode in="x1"></feMergeNode><feMergeNode in="x0"></feMergeNode></feMerge></filter></defs><g filter="url(#editing-cake)"><g transform="translate(207.94324207305908, 88.53375053405762)"><path d="M6.12-15.24L6.12-15.24L6.12-15.24Q5.70-13.62 5.08-11.88L5.08-11.88L5.08-11.88Q4.47-10.14 3.81-8.58L3.81-8.58L3.81-8.58Q3.78-8.52 3.69-8.29L3.69-8.29L3.69-8.29Q3.60-8.07 3.48-8.10L3.48-8.10L3.48-8.10Q3.42-8.10 3.44-8.36L3.44-8.36L3.44-8.36Q3.45-8.61 3.45-8.70L3.45-8.70L3.45-8.70Q3.48-9.06 3.57-9.60L3.57-9.60L3.57-9.60Q3.66-10.14 3.78-10.71L3.78-10.71L3.78-10.71Q3.90-11.28 4.02-11.82L4.02-11.82L4.02-11.82Q4.14-12.36 4.26-12.75L4.26-12.75L4.26-12.75Q4.32-12.93 4.46-13.48L4.46-13.48L4.46-13.48Q4.59-14.04 4.75-14.82L4.75-14.82L4.75-14.82Q4.92-15.60 5.08-16.50L5.08-16.50L5.08-16.50Q5.25-17.40 5.37-18.24L5.37-18.24L5.37-18.24Q5.49-19.08 5.52-19.77L5.52-19.77L5.52-19.77Q5.55-20.46 5.43-20.85L5.43-20.85L5.43-20.85Q5.37-20.97 5.40-21.04L5.40-21.04L5.40-21.04Q5.43-21.12 5.46-21.12L5.46-21.12L5.46-21.12Q5.52-21.12 5.55-21.04L5.55-21.04L5.55-21.04Q5.58-20.97 5.64-20.91L5.64-20.91L5.64-20.91Q5.97-20.40 6.15-19.68L6.15-19.68L6.15-19.68Q6.33-18.96 6.38-18.16L6.38-18.16L6.38-18.16Q6.42-17.37 6.34-16.59L6.34-16.59L6.34-16.59Q6.27-15.81 6.12-15.24ZM5.85-8.58L5.85-8.58L5.85-8.58Q5.49-7.14 4.98-5.64L4.98-5.64L4.98-5.64Q4.47-4.14 4.08-3L4.08-3L4.08-3Q4.02-2.85 3.96-2.71L3.96-2.71L3.96-2.71Q3.90-2.58 3.87-2.64L3.87-2.64L3.87-2.64Q3.81-2.64 3.79-2.79L3.79-2.79L3.79-2.79Q3.78-2.94 3.78-3.09L3.78-3.09L3.78-3.09Q3.87-5.34 4.42-7.59L4.42-7.59L4.42-7.59Q4.98-9.84 5.67-12.12L5.67-12.12L5.67-12.12Q6.09-13.53 6.43-15.01L6.43-15.01L6.43-15.01Q6.78-16.50 6.90-18.21L6.90-18.21L6.90-18.21Q6.90-18.36 6.99-18.36L6.99-18.36L6.99-18.36Q7.02-18.36 7.05-18.30L7.05-18.30L7.05-18.30Q7.08-18.24 7.11-18.18L7.11-18.18L7.11-18.18Q7.44-17.37 7.36-16.06L7.36-16.06L7.36-16.06Q7.29-14.76 7.02-13.37L7.02-13.37L7.02-13.37Q6.75-11.97 6.39-10.66L6.39-10.66L6.39-10.66Q6.03-9.36 5.85-8.58ZM3.09-0.12L3.09-0.12L3.09-0.12Q3.18 0.06 3.15 0.06L3.15 0.06L3.15 0.06Q3.09 0.06 3.03 0.03L3.03 0.03L3.03 0.03Q2.97 0 2.94 0L2.94 0L2.94 0Q2.10-0.99 1.71-2.15L1.71-2.15L1.71-2.15Q1.32-3.30 1.24-4.53L1.24-4.53L1.24-4.53Q1.17-5.76 1.33-7.02L1.33-7.02L1.33-7.02Q1.50-8.28 1.77-9.48L1.77-9.48L1.77-9.48Q2.16-11.13 2.67-12.76L2.67-12.76L2.67-12.76Q3.18-14.40 3.61-15.95L3.61-15.95L3.61-15.95Q4.05-17.49 4.33-18.93L4.33-18.93L4.33-18.93Q4.62-20.37 4.59-21.69L4.59-21.69L4.59-21.69Q4.59-21.84 4.65-21.87L4.65-21.87L4.65-21.87Q4.68-21.87 4.72-21.78L4.72-21.78L4.72-21.78Q4.77-21.69 4.77-21.66L4.77-21.66L4.77-21.66Q5.19-20.22 5.04-18.68L5.04-18.68L5.04-18.68Q4.89-17.13 4.46-15.51L4.46-15.51L4.46-15.51Q4.02-13.89 3.48-12.21L3.48-12.21L3.48-12.21Q2.94-10.53 2.55-8.88L2.55-8.88L2.55-8.88Q2.31-7.83 2.17-6.69L2.17-6.69L2.17-6.69Q2.04-5.55 2.08-4.39L2.08-4.39L2.08-4.39Q2.13-3.24 2.37-2.15L2.37-2.15L2.37-2.15Q2.61-1.05 3.09-0.12ZM3.42-2.13L3.42-2.13L3.42-2.13Q3.57-1.17 4.02-0.12L4.02-0.12L4.02-0.12Q4.05-0.06 4.06 0.03L4.06 0.03L4.06 0.03Q4.08 0.12 4.02 0.12L4.02 0.12L4.02 0.12Q3.96 0.12 3.84 0.06L3.84 0.06L3.84 0.06Q3.78 0.03 3.75-0.03L3.75-0.03L3.75-0.03Q3.36-0.48 3.13-0.87L3.13-0.87L3.13-0.87Q2.91-1.26 2.76-2.13L2.76-2.13L2.76-2.13Q2.70-2.46 2.69-2.97L2.69-2.97L2.69-2.97Q2.67-3.48 2.70-3.96L2.70-3.96L2.70-3.96Q2.73-4.44 2.80-4.77L2.80-4.77L2.80-4.77Q2.88-5.10 3-5.10L3-5.10L3-5.10Q3.03-5.10 3.07-4.95L3.07-4.95L3.07-4.95Q3.12-4.80 3.15-4.60L3.15-4.60L3.15-4.60Q3.18-4.41 3.19-4.21L3.19-4.21L3.19-4.21Q3.21-4.02 3.21-3.96L3.21-3.96L3.21-3.96Q3.27-3.45 3.30-3L3.30-3L3.30-3Q3.33-2.55 3.42-2.13ZM12.27-9.99L12.27-9.99L12.27-9.99Q12.12-8.94 12.12-7.95L12.12-7.95L12.12-7.95Q12.12-6.96 12.27-6.09L12.27-6.09L12.27-6.09Q12.42-5.22 12.70-4.51L12.70-4.51L12.70-4.51Q12.99-3.81 13.44-3.33L13.44-3.33L13.44-3.33Q14.01-2.73 14.92-2.48L14.92-2.48L14.92-2.48Q15.84-2.22 16.98-2.37L16.98-2.37L16.98-2.37Q17.28-3.54 17.68-4.62L17.68-4.62L17.68-4.62Q18.09-5.70 18.46-6.72L18.46-6.72L18.46-6.72Q18.84-7.74 19.11-8.73L19.11-8.73L19.11-8.73Q19.38-9.72 19.38-10.68L19.38-10.68L19.38-10.68Q19.38-10.77 19.41-10.77L19.41-10.77L19.41-10.77Q19.44-10.77 19.48-10.68L19.48-10.68L19.48-10.68Q19.53-10.59 19.53-10.56L19.53-10.56L19.53-10.56Q19.89-9.45 19.75-8.32L19.75-8.32L19.75-8.32Q19.62-7.20 19.24-6.03L19.24-6.03L19.24-6.03Q18.87-4.86 18.39-3.65L18.39-3.65L18.39-3.65Q17.91-2.43 17.61-1.14L17.61-1.14L17.61-1.14Q17.46-0.57 17.43 0.20L17.43 0.20L17.43 0.20Q17.40 0.96 17.53 1.75L17.53 1.75L17.53 1.75Q17.67 2.55 18.02 3.33L18.02 3.33L18.02 3.33Q18.36 4.11 18.99 4.71L18.99 4.71L18.99 4.71Q19.02 4.77 19.08 4.83L19.08 4.83L19.11 4.86L19.11 4.86Q19.11 4.86 19.02 4.86L19.02 4.86L19.02 4.86Q18.99 4.86 18.96 4.83L18.96 4.83L18.96 4.83Q18.15 4.29 17.63 3.60L17.63 3.60L17.63 3.60Q17.10 2.91 16.84 2.17L16.84 2.17L16.84 2.17Q16.59 1.44 16.55 0.70L16.55 0.70L16.55 0.70Q16.50-0.03 16.62-0.63L16.62-0.63L16.62-0.63Q15.72-0.42 14.83-0.57L14.83-0.57L14.83-0.57Q13.95-0.72 13.20-1.11L13.20-1.11L13.20-1.11Q13.05-1.17 12.88-1.35L12.88-1.35L12.88-1.35Q12.72-1.53 12.75-1.56L12.75-1.56L12.75-1.56Q12.75-1.56 13.21-1.48L13.21-1.48L13.21-1.48Q13.68-1.41 14.26-1.33L14.26-1.33L14.26-1.33Q14.85-1.26 15.43-1.21L15.43-1.21L15.43-1.21Q16.02-1.17 16.29-1.20L16.29-1.20L16.29-1.20Q16.38-1.23 16.48-1.24L16.48-1.24L16.48-1.24Q16.59-1.26 16.74-1.32L16.74-1.32L16.74-1.32Q16.74-1.47 16.77-1.60L16.77-1.60L16.77-1.60Q16.80-1.74 16.86-1.89L16.86-1.89L16.86-1.89Q15.81-1.65 14.82-1.83L14.82-1.83L14.82-1.83Q13.83-2.01 13.05-2.67L13.05-2.67L13.05-2.67Q12.42-3.21 12.04-3.97L12.04-3.97L12.04-3.97Q11.67-4.74 11.47-5.64L11.47-5.64L11.47-5.64Q11.28-6.54 11.25-7.51L11.25-7.51L11.25-7.51Q11.22-8.49 11.31-9.45L11.31-9.45L11.31-9.45Q11.43-10.98 11.91-12.54L11.91-12.54L11.91-12.54Q12.39-14.10 13.18-15.43L13.18-15.43L13.18-15.43Q13.98-16.77 15.07-17.75L15.07-17.75L15.07-17.75Q16.17-18.72 17.55-19.11L17.55-19.11L17.55-19.11Q18.18-19.29 18.90-19.26L18.90-19.26L18.90-19.26Q19.62-19.23 20.25-18.99L20.25-18.99L20.25-18.99Q20.88-18.75 21.34-18.31L21.34-18.31L21.34-18.31Q21.81-17.88 21.93-17.22L21.93-17.22L21.93-17.22Q22.08-16.50 21.81-15.82L21.81-15.82L21.81-15.82Q21.54-15.15 21.06-14.65L21.06-14.65L21.06-14.65Q20.58-14.16 19.98-13.95L19.98-13.95L19.98-13.95Q19.38-13.74 18.84-13.98L18.84-13.98L18.84-13.98Q18.63-14.04 18.75-14.10L18.75-14.10L18.75-14.10Q18.81-14.13 18.84-14.10L18.84-14.10L18.84-14.10Q18.87-14.07 18.93-14.07L18.93-14.07L18.93-14.07Q19.29-14.01 19.74-14.22L19.74-14.22L19.74-14.22Q20.19-14.43 20.56-14.82L20.56-14.82L20.56-14.82Q20.94-15.21 21.16-15.73L21.16-15.73L21.16-15.73Q21.39-16.26 21.30-16.80L21.30-16.80L21.30-16.80Q21.21-17.25 20.92-17.58L20.92-17.58L20.92-17.58Q20.64-17.91 20.19-18.12L20.19-18.12L20.19-18.12Q19.74-18.33 19.18-18.39L19.18-18.39L19.18-18.39Q18.63-18.45 18-18.33L18-18.33L18-18.33Q16.89-18.12 15.93-17.32L15.93-17.32L15.93-17.32Q14.97-16.53 14.22-15.38L14.22-15.38L14.22-15.38Q13.47-14.22 12.96-12.81L12.96-12.81L12.96-12.81Q12.45-11.40 12.27-9.99ZM14.64-0.09L14.64-0.09L14.64-0.09Q15.06-0.03 15.12 0L15.12 0L15.12 0Q15.18 0.03 14.67 0.03L14.67 0.03L14.67 0.03Q13.83 0.03 12.97-0.24L12.97-0.24L12.97-0.24Q12.12-0.51 11.37-1.00L11.37-1.00L11.37-1.00Q10.62-1.50 10.02-2.22L10.02-2.22L10.02-2.22Q9.42-2.94 9.12-3.81L9.12-3.81L9.12-3.81Q8.46-5.70 8.34-7.42L8.34-7.42L8.34-7.42Q8.22-9.15 8.49-10.89L8.49-10.89L8.49-10.89Q8.64-11.82 8.97-13.02L8.97-13.02L8.97-13.02Q9.30-14.22 9.88-15.48L9.88-15.48L9.88-15.48Q10.47-16.74 11.34-17.97L11.34-17.97L11.34-17.97Q12.21-19.20 13.44-20.22L13.44-20.22L13.44-20.22Q14.73-21.30 16.32-21.64L16.32-21.64L16.32-21.64Q17.91-21.99 19.35-21.75L19.35-21.75L19.35-21.75Q20.79-21.51 21.90-20.71L21.90-20.71L21.90-20.71Q23.01-19.92 23.37-18.75L23.37-18.75L23.37-18.75Q23.40-18.69 23.46-18.51L23.46-18.51L23.46-18.51Q23.52-18.33 23.46-18.30L23.46-18.30L23.46-18.30Q23.40-18.27 23.34-18.42L23.34-18.42L23.34-18.42Q23.28-18.57 23.13-18.75L23.13-18.75L23.13-18.75Q21.87-20.46 20.28-20.91L20.28-20.91L20.28-20.91Q18.69-21.36 17.14-21L17.14-21L17.14-21Q15.60-20.64 14.23-19.63L14.23-19.63L14.23-19.63Q12.87-18.63 12.06-17.40L12.06-17.40L12.06-17.40Q10.65-15.33 9.96-12.88L9.96-12.88L9.96-12.88Q9.27-10.44 9.30-7.92L9.30-7.92L9.30-7.92Q9.33-6.69 9.57-5.43L9.57-5.43L9.57-5.43Q9.81-4.17 10.44-2.97L10.44-2.97L10.44-2.97Q11.04-1.80 12.22-1.02L12.22-1.02L12.22-1.02Q13.41-0.24 14.64-0.09ZM10.38-11.46L10.38-11.46L10.38-11.46Q10.59-13.02 11.10-14.54L11.10-14.54L11.10-14.54Q11.61-16.05 12.46-17.28L12.46-17.28L12.46-17.28Q13.32-18.51 14.58-19.41L14.58-19.41L14.58-19.41Q15.84-20.31 17.55-20.67L17.55-20.67L17.55-20.67Q18.12-20.79 18.85-20.77L18.85-20.77L18.85-20.77Q19.59-20.76 20.32-20.50L20.32-20.50L20.32-20.50Q21.06-20.25 21.70-19.74L21.70-19.74L21.70-19.74Q22.35-19.23 22.77-18.33L22.77-18.33L22.77-18.33Q23.16-17.46 23.05-16.61L23.05-16.61L23.05-16.61Q22.95-15.75 22.57-15.07L22.57-15.07L22.57-15.07Q22.20-14.40 21.64-13.95L21.64-13.95L21.64-13.95Q21.09-13.50 20.55-13.44L20.55-13.44L20.55-13.44Q20.46-13.41 20.32-13.42L20.32-13.42L20.32-13.42Q20.19-13.44 20.19-13.50L20.19-13.50L20.19-13.50Q20.19-13.56 20.22-13.54L20.22-13.54L20.22-13.54Q20.25-13.53 20.55-13.65L20.55-13.65L20.55-13.65Q20.76-13.74 21.04-13.96L21.04-13.96L21.04-13.96Q21.33-14.19 21.59-14.55L21.59-14.55L21.59-14.55Q21.84-14.91 22.05-15.39L22.05-15.39L22.05-15.39Q22.26-15.87 22.32-16.44L22.32-16.44L22.32-16.44Q22.38-17.04 22.17-17.58L22.17-17.58L22.17-17.58Q21.96-18.12 21.55-18.55L21.55-18.55L21.55-18.55Q21.15-18.99 20.61-19.29L20.61-19.29L20.61-19.29Q20.07-19.59 19.50-19.68L19.50-19.68L19.50-19.68Q17.73-19.95 16.29-19.21L16.29-19.21L16.29-19.21Q14.85-18.48 13.74-17.20L13.74-17.20L13.74-17.20Q12.63-15.93 11.88-14.35L11.88-14.35L11.88-14.35Q11.13-12.78 10.74-11.37L10.74-11.37L10.74-11.37Q10.74-11.34 10.68-11.16L10.68-11.16L10.68-11.16Q10.62-10.98 10.56-10.77L10.56-10.77L10.56-10.77Q10.50-10.56 10.45-10.39L10.45-10.39L10.45-10.39Q10.41-10.23 10.38-10.23L10.38-10.23L10.38-10.23Q10.35-10.23 10.33-10.39L10.33-10.39L10.33-10.39Q10.32-10.56 10.33-10.79L10.33-10.79L10.33-10.79Q10.35-11.01 10.36-11.21L10.36-11.21L10.36-11.21Q10.38-11.40 10.38-11.46ZM20.67-0.87L20.67-0.87L20.67-0.87Q20.49-0.21 20.14 0.79L20.14 0.79L20.14 0.79Q19.80 1.80 19.53 2.64L19.53 2.64L19.53 2.64Q19.44 2.88 19.38 2.88L19.38 2.88L19.38 2.88Q19.26 2.88 19.24 2.77L19.24 2.77L19.24 2.77Q19.23 2.67 19.23 2.61L19.23 2.61L19.23 2.61Q19.14 1.80 19.20 1.06L19.20 1.06L19.20 1.06Q19.26 0.33 19.44-0.39L19.44-0.39L19.44-0.39Q19.62-1.11 19.88-1.83L19.88-1.83L19.88-1.83Q20.13-2.55 20.40-3.36L20.40-3.36L20.40-3.36Q20.76-4.41 21.06-5.42L21.06-5.42L21.06-5.42Q21.36-6.42 21.42-7.68L21.42-7.68L21.42-7.68Q21.42-7.83 21.43-7.84L21.43-7.84L21.43-7.84Q21.45-7.86 21.51-7.86L21.51-7.86L21.60-7.68L21.60-7.68Q21.90-7.05 21.85-6.12L21.85-6.12L21.85-6.12Q21.81-5.19 21.60-4.20L21.60-4.20L21.60-4.20Q21.39-3.21 21.10-2.31L21.10-2.31L21.10-2.31Q20.82-1.41 20.67-0.87ZM20.76-5.64L20.76-5.64L20.76-5.64Q20.34-4.50 19.83-3.27L19.83-3.27L19.83-3.27Q19.32-2.04 18.78-0.90L18.78-0.90L18.78-0.90Q18.75-0.87 18.67-0.70L18.67-0.70L18.67-0.70Q18.60-0.54 18.51-0.57L18.51-0.57L18.51-0.57Q18.45-0.60 18.45-0.77L18.45-0.77L18.45-0.77Q18.45-0.93 18.45-1.02L18.45-1.02L18.45-1.02Q18.45-1.29 18.51-1.69L18.51-1.69L18.51-1.69Q18.57-2.10 18.66-2.50L18.66-2.50L18.66-2.50Q18.75-2.91 18.85-3.30L18.85-3.30L18.85-3.30Q18.96-3.69 19.08-3.96L19.08-3.96L19.08-3.96Q19.14-4.14 19.35-4.93L19.35-4.93L19.35-4.93Q19.56-5.73 19.77-6.67L19.77-6.67L19.77-6.67Q19.98-7.62 20.10-8.52L20.10-8.52L20.10-8.52Q20.22-9.42 20.10-9.87L20.10-9.87L20.10-9.87Q20.04-10.02 20.10-10.08L20.10-10.08L20.10-10.08Q20.16-10.08 20.20-10.00L20.20-10.00L20.20-10.00Q20.25-9.93 20.31-9.87L20.31-9.87L20.31-9.87Q20.58-9.45 20.73-8.89L20.73-8.89L20.73-8.89Q20.88-8.34 20.92-7.75L20.92-7.75L20.92-7.75Q20.97-7.17 20.92-6.61L20.92-6.61L20.92-6.61Q20.88-6.06 20.76-5.64ZM18.99 3.21L18.99 3.21L18.99 3.21Q19.35 3.96 19.86 4.62L19.86 4.62L19.86 4.62Q19.95 4.71 19.89 4.77L19.89 4.77L19.89 4.77Q19.80 4.83 19.71 4.77L19.71 4.77L19.71 4.77Q19.65 4.74 19.62 4.71L19.62 4.71L19.62 4.71Q19.20 4.47 18.93 4.23L18.93 4.23L18.93 4.23Q18.66 3.99 18.39 3.30L18.39 3.30L18.39 3.30Q18.30 3.06 18.23 2.69L18.23 2.69L18.23 2.69Q18.15 2.31 18.12 1.96L18.12 1.96L18.12 1.96Q18.09 1.62 18.10 1.38L18.10 1.38L18.10 1.38Q18.12 1.14 18.21 1.17L18.21 1.17L18.21 1.17Q18.36 1.17 18.46 1.53L18.46 1.53L18.46 1.53Q18.57 1.89 18.60 1.98L18.60 1.98L18.60 1.98Q18.72 2.31 18.78 2.61L18.78 2.61L18.78 2.61Q18.84 2.91 18.99 3.21ZM29.52-21.69L29.52-21.69L29.52-21.69Q29.40-21.96 29.46-21.96L29.46-21.96L29.46-21.96Q29.55-21.96 29.67-21.82L29.67-21.82L29.67-21.82Q29.79-21.69 29.82-21.66L29.82-21.66L29.82-21.66Q30.12-21.21 30.48-20.68L30.48-20.68L30.48-20.68Q30.84-20.16 31.17-19.44L31.17-19.44L31.17-19.44Q31.50-18.72 31.77-17.77L31.77-17.77L31.77-17.77Q32.04-16.83 32.19-15.54L32.19-15.54L32.19-15.54Q32.37-14.07 32.27-12.64L32.27-12.64L32.27-12.64Q32.16-11.22 31.92-9.78L31.92-9.78L31.92-9.78Q31.89-9.72 31.86-9.48L31.86-9.48L31.86-9.48Q31.83-9.24 31.74-9.24L31.74-9.24L31.74-9.24Q31.68-9.24 31.62-9.46L31.62-9.46L31.62-9.46Q31.56-9.69 31.56-9.78L31.56-9.78L31.56-9.78Q31.50-10.11 31.44-10.56L31.44-10.56L31.44-10.56Q31.38-11.01 31.34-11.50L31.34-11.50L31.34-11.50Q31.29-12 31.27-12.46L31.27-12.46L31.27-12.46Q31.26-12.93 31.26-13.29L31.26-13.29L31.26-13.29Q31.26-13.41 31.24-13.81L31.24-13.81L31.24-13.81Q31.23-14.22 31.20-14.76L31.20-14.76L31.20-14.76Q31.17-15.30 31.09-15.95L31.09-15.95L31.09-15.95Q31.02-16.59 30.93-17.22L30.93-17.22L30.93-17.22Q30.99-16.29 30.93-15.36L30.93-15.36L30.93-15.36Q30.87-14.43 30.78-13.48L30.78-13.48L30.78-13.48Q30.69-12.54 30.63-11.59L30.63-11.59L30.63-11.59Q30.57-10.65 30.63-9.69L30.63-9.69L30.63-9.69Q30.72-7.83 31.38-5.91L31.38-5.91L31.38-5.91Q32.04-3.99 33.48-2.64L33.48-2.64L33.48-2.64Q33.66-2.46 33.63-2.46L33.63-2.46L33.63-2.46Q33.57-2.43 33.42-2.52L33.42-2.52L33.42-2.52Q32.37-3.12 31.68-3.96L31.68-3.96L31.68-3.96Q30.99-4.80 30.55-5.79L30.55-5.79L30.55-5.79Q30.12-6.78 29.91-7.84L29.91-7.84L29.91-7.84Q29.70-8.91 29.67-9.99L29.67-9.99L29.67-9.99Q29.67-10.08 29.65-10.15L29.65-10.15L29.65-10.15Q29.64-10.23 29.64-10.32L29.64-10.32L29.64-10.32Q29.04-8.61 28.30-7.02L28.30-7.02L28.30-7.02Q27.57-5.43 26.86-3.96L26.86-3.96L26.86-3.96Q26.16-2.49 25.54-1.19L25.54-1.19L25.54-1.19Q24.93 0.12 24.57 1.23L24.57 1.23L24.57 1.23Q24.51 1.38 24.48 1.38L24.48 1.38L24.48 1.38Q24.42 1.38 24.42 1.29L24.42 1.29L24.42 1.29Q24.42 1.20 24.42 1.17L24.42 1.17L24.42 1.17Q24.45-0.24 24.99-1.78L24.99-1.78L24.99-1.78Q25.53-3.33 26.27-5.00L26.27-5.00L26.27-5.00Q27-6.66 27.81-8.41L27.81-8.41L27.81-8.41Q28.62-10.17 29.22-12L29.22-12L29.22-12Q29.58-13.17 29.83-14.43L29.83-14.43L29.83-14.43Q30.09-15.69 30.15-16.95L30.15-16.95L30.15-16.95Q30.21-18.21 30.06-19.43L30.06-19.43L30.06-19.43Q29.91-20.64 29.52-21.69ZM33.24-4.41L33.24-4.41L33.24-4.41Q33.57-3.72 34.11-3.12L34.11-3.12L34.11-3.12Q34.32-4.38 34.92-5.63L34.92-5.63L34.92-5.63Q35.52-6.87 36.28-8.13L36.28-8.13L36.28-8.13Q37.05-9.39 37.89-10.65L37.89-10.65L37.89-10.65Q38.73-11.91 39.45-13.20L39.45-13.20L39.45-13.20Q39.99-14.13 40.36-15.21L40.36-15.21L40.36-15.21Q40.74-16.29 40.91-17.41L40.91-17.41L40.91-17.41Q41.07-18.54 40.99-19.65L40.99-19.65L40.99-19.65Q40.92-20.76 40.53-21.75L40.53-21.75L40.53-21.75Q40.44-21.90 40.50-21.96L40.50-21.96L40.50-21.96Q40.56-22.02 40.69-21.88L40.69-21.88L40.69-21.88Q40.83-21.75 40.86-21.69L40.86-21.69L40.86-21.69Q41.22-21.18 41.44-20.36L41.44-20.36L41.44-20.36Q41.67-19.53 41.77-18.52L41.77-18.52L41.77-18.52Q41.88-17.52 41.88-16.41L41.88-16.41L41.88-16.41Q41.88-15.30 41.79-14.19L41.79-14.19L41.79-14.19Q41.67-12.72 41.35-10.98L41.35-10.98L41.35-10.98Q41.04-9.24 40.59-7.80L40.59-7.80L40.59-7.80Q40.56-7.74 40.48-7.53L40.48-7.53L40.48-7.53Q40.41-7.32 40.32-7.32L40.32-7.32L40.32-7.32Q40.26-7.35 40.23-7.57L40.23-7.57L40.23-7.57Q40.20-7.80 40.20-7.86L40.20-7.86L40.20-7.86Q40.20-8.19 40.21-8.65L40.21-8.65L40.21-8.65Q40.23-9.12 40.26-9.62L40.26-9.62L40.26-9.62Q40.29-10.11 40.33-10.57L40.33-10.57L40.33-10.57Q40.38-11.04 40.44-11.37L40.44-11.37L40.44-11.37Q40.47-11.55 40.55-12.20L40.55-12.20L40.55-12.20Q40.62-12.84 40.68-13.65L40.68-13.65L40.68-13.65Q40.32-12.81 40.11-12.15L40.11-12.15L40.11-12.15Q39.90-11.49 39.75-10.86L39.75-10.86L39.75-10.86Q39.60-10.23 39.49-9.54L39.49-9.54L39.49-9.54Q39.39-8.85 39.30-7.92L39.30-7.92L39.30-7.92Q39.21-6.99 39.22-5.97L39.22-5.97L39.22-5.97Q39.24-4.95 39.44-3.96L39.44-3.96L39.44-3.96Q39.63-2.97 40.00-2.02L40.00-2.02L40.00-2.02Q40.38-1.08 40.98-0.30L40.98-0.30L40.98-0.30Q41.10-0.12 41.04-0.09L41.04-0.09L41.04-0.09Q40.98-0.06 40.89-0.15L40.89-0.15L40.89-0.15Q39.93-0.93 39.38-1.91L39.38-1.91L39.38-1.91Q38.82-2.88 38.55-3.96L38.55-3.96L38.55-3.96Q38.28-5.04 38.27-6.17L38.27-6.17L38.27-6.17Q38.25-7.29 38.37-8.37L38.37-8.37L38.37-8.37Q38.43-8.76 38.47-9.15L38.47-9.15L38.47-9.15Q38.52-9.54 38.58-9.96L38.58-9.96L38.58-9.96Q37.89-8.85 37.20-7.80L37.20-7.80L37.20-7.80Q36.51-6.75 35.91-5.71L35.91-5.71L35.91-5.71Q35.31-4.68 34.84-3.67L34.84-3.67L34.84-3.67Q34.38-2.67 34.14-1.68L34.14-1.68L34.14-1.68Q34.08-1.53 34.08-1.53L34.08-1.53L34.08-1.53Q34.02-1.53 34.02-1.65L34.02-1.65L34.02-1.65Q34.02-1.77 34.02-1.80L34.02-1.80L34.02-1.80Q34.02-2.04 34.02-2.28L34.02-2.28L34.02-2.28Q34.02-2.52 34.08-2.76L34.08-2.76L34.08-2.76Q33.84-2.88 33.66-2.98L33.66-2.98L33.66-2.98Q33.48-3.09 33.31-3.24L33.31-3.24L33.31-3.24Q33.15-3.39 32.98-3.60L32.98-3.60L32.98-3.60Q32.82-3.81 32.64-4.14L32.64-4.14L32.64-4.14Q32.49-4.44 32.34-4.86L32.34-4.86L32.34-4.86Q32.19-5.28 32.09-5.68L32.09-5.68L32.09-5.68Q31.98-6.09 31.96-6.38L31.96-6.38L31.96-6.38Q31.95-6.66 32.04-6.66L32.04-6.66L32.04-6.66Q32.10-6.66 32.17-6.55L32.17-6.55L32.17-6.55Q32.25-6.45 32.34-6.30L32.34-6.30L32.34-6.30Q32.43-6.15 32.49-6L32.49-6L32.49-6Q32.55-5.85 32.58-5.79L32.58-5.79L32.58-5.79Q32.73-5.43 32.89-5.08L32.89-5.08L32.89-5.08Q33.06-4.74 33.24-4.41ZM33.87-10.26L33.87-9.96L33.87-9.96Q34.53-11.25 35.23-12.46L35.23-12.46L35.23-12.46Q35.94-13.68 36.36-14.40L36.36-14.40L36.36-14.40Q37.08-15.69 37.86-16.93L37.86-16.93L37.86-16.93Q38.64-18.18 39.21-19.14L39.21-19.14L39.21-19.14Q39.27-19.29 39.34-19.41L39.34-19.41L39.34-19.41Q39.42-19.53 39.48-19.47L39.48-19.47L39.48-19.47Q39.54-19.47 39.51-19.32L39.51-19.32L39.51-19.32Q39.48-19.17 39.45-19.02L39.45-19.02L39.45-19.02Q39.03-16.86 37.94-14.94L37.94-14.94L37.94-14.94Q36.84-13.02 35.64-11.07L35.64-11.07L35.64-11.07Q35.22-10.41 34.91-9.97L34.91-9.97L34.91-9.97Q34.59-9.54 34.36-9.13L34.36-9.13L34.36-9.13Q34.14-8.73 33.99-8.25L33.99-8.25L33.99-8.25Q33.84-7.77 33.78-7.02L33.78-7.02L33.78-7.02Q33.90-7.35 34.05-7.65L34.05-7.65L34.05-7.65Q34.20-7.95 34.35-8.22L34.35-8.22L34.35-8.22Q35.19-9.66 36.24-11.10L36.24-11.10L36.24-11.10Q37.29-12.54 38.31-13.80L38.31-13.80L38.31-13.80Q38.37-13.86 38.53-14.05L38.53-14.05L38.53-14.05Q38.70-14.25 38.76-14.22L38.76-14.22L38.76-14.22Q38.82-14.19 38.74-13.95L38.74-13.95L38.74-13.95Q38.67-13.71 38.64-13.59L38.64-13.59L38.64-13.59Q38.49-13.26 38.27-12.78L38.27-12.78L38.27-12.78Q38.04-12.30 37.78-11.80L37.78-11.80L37.78-11.80Q37.53-11.31 37.26-10.84L37.26-10.84L37.26-10.84Q36.99-10.38 36.78-10.08L36.78-10.08L36.78-10.08Q36.66-9.90 36.27-9.36L36.27-9.36L36.27-9.36Q35.88-8.82 35.43-8.01L35.43-8.01L35.43-8.01Q34.98-7.20 34.55-6.18L34.55-6.18L34.55-6.18Q34.11-5.16 33.90-4.02L33.90-4.02L33.90-4.02Q33.81-4.20 33.67-4.47L33.67-4.47L33.67-4.47Q33.54-4.74 33.36-5.34L33.36-5.34L33.36-5.34Q32.82-7.23 32.77-9.16L32.77-9.16L32.77-9.16Q32.73-11.10 32.76-13.14L32.76-13.14L32.76-13.14Q32.79-14.43 32.77-15.72L32.77-15.72L32.77-15.72Q32.76-17.01 32.34-18.45L32.34-18.45L32.34-18.45Q32.31-18.57 32.34-18.63L32.34-18.63L32.34-18.63Q32.40-18.63 32.52-18.45L32.52-18.45L32.52-18.45Q33.06-17.88 33.33-16.79L33.33-16.79L33.33-16.79Q33.60-15.69 33.72-14.47L33.72-14.47L33.72-14.47Q33.84-13.26 33.85-12.11L33.85-12.11L33.85-12.11Q33.87-10.95 33.87-10.26L33.87-10.26ZM25.98-12.57L25.98-12.57L25.98-12.57Q26.49-14.13 27.13-15.72L27.13-15.72L27.13-15.72Q27.78-17.31 28.26-18.57L28.26-18.57L28.26-18.57Q28.32-18.72 28.39-18.87L28.39-18.87L28.39-18.87Q28.47-19.02 28.53-18.99L28.53-18.99L28.53-18.99Q28.59-18.99 28.57-18.79L28.57-18.79L28.57-18.79Q28.56-18.60 28.56-18.45L28.56-18.45L28.56-18.45Q28.29-15.99 27.48-13.56L27.48-13.56L27.48-13.56Q26.67-11.13 25.68-8.76L25.68-8.76L25.68-8.76Q25.08-7.26 24.39-5.75L24.39-5.75L24.39-5.75Q23.70-4.23 23.25-2.46L23.25-2.46L23.25-2.46Q23.19-2.31 23.20-2.28L23.20-2.28L23.20-2.28Q23.22-2.25 23.19-2.25L23.19-2.25L23.19-2.25Q23.10-2.31 23.10-2.52L23.10-2.52L23.10-2.52Q22.95-3.42 23.28-4.79L23.28-4.79L23.28-4.79Q23.61-6.15 24.12-7.60L24.12-7.60L24.12-7.60Q24.63-9.06 25.17-10.39L25.17-10.39L25.17-10.39Q25.71-11.73 25.98-12.57ZM24.69-5.43L24.69-5.43L24.69-5.43Q25.44-7.14 26.31-8.96L26.31-8.96L26.31-8.96Q27.18-10.77 27.99-12.42L27.99-12.42L27.99-12.42Q28.02-12.51 28.15-12.75L28.15-12.75L28.15-12.75Q28.29-12.99 28.41-12.96L28.41-12.96L28.41-12.96Q28.47-12.96 28.44-12.69L28.44-12.69L28.44-12.69Q28.41-12.42 28.35-12.30L28.35-12.30L28.35-12.30Q28.26-11.88 28.11-11.29L28.11-11.29L28.11-11.29Q27.96-10.71 27.77-10.09L27.77-10.09L27.77-10.09Q27.57-9.48 27.36-8.89L27.36-8.89L27.36-8.89Q27.15-8.31 26.97-7.92L26.97-7.92L26.97-7.92Q26.88-7.74 26.65-7.15L26.65-7.15L26.65-7.15Q26.43-6.57 26.11-5.76L26.11-5.76L26.11-5.76Q25.80-4.95 25.45-4.04L25.45-4.04L25.45-4.04Q25.11-3.12 24.81-2.29L24.81-2.29L24.81-2.29Q24.51-1.47 24.29-0.82L24.29-0.82L24.29-0.82Q24.06-0.18 24.03 0.09L24.03 0.09L24.03 0.09Q23.97 0.39 23.91 0.39L23.91 0.39L23.91 0.39Q23.85 0.39 23.83 0.27L23.83 0.27L23.83 0.27Q23.82 0.15 23.79 0.09L23.79 0.09L23.79 0.09Q23.64-0.27 23.65-0.96L23.65-0.96L23.65-0.96Q23.67-1.65 23.82-2.43L23.82-2.43L23.82-2.43Q23.97-3.21 24.20-4.02L24.20-4.02L24.20-4.02Q24.42-4.83 24.69-5.43ZM42.57-8.01L42.57-8.01L42.57-8.01Q42.42-6.66 42.10-5.31L42.10-5.31L42.10-5.31Q41.79-3.96 41.55-2.91L41.55-2.91L41.55-2.91Q41.43-2.52 41.37-2.55L41.37-2.55L41.37-2.55Q41.31-2.55 41.30-2.69L41.30-2.69L41.30-2.69Q41.28-2.82 41.25-2.97L41.25-2.97L41.25-2.97Q41.01-4.98 41.31-6.99L41.31-6.99L41.31-6.99Q41.61-9 41.97-11.10L41.97-11.10L41.97-11.10Q42.21-12.36 42.36-13.70L42.36-13.70L42.36-13.70Q42.51-15.03 42.36-16.56L42.36-16.56L42.36-16.56Q42.36-16.68 42.42-16.74L42.42-16.74L42.42-16.74Q42.48-16.74 42.49-16.66L42.49-16.66L42.49-16.66Q42.51-16.59 42.57-16.56L42.57-16.56L42.57-16.56Q43.02-15.90 43.09-14.74L43.09-14.74L43.09-14.74Q43.17-13.59 43.08-12.33L43.08-12.33L43.08-12.33Q42.99-11.07 42.83-9.90L42.83-9.90L42.83-9.90Q42.66-8.73 42.57-8.01ZM28.98-19.47L28.98-19.47L28.98-19.47Q28.92-20.10 28.81-20.64L28.81-20.64L28.81-20.64Q28.71-21.18 28.56-21.75L28.56-21.75L28.56-21.75Q28.53-21.81 28.53-21.90L28.53-21.90L28.53-21.90Q28.53-21.99 28.56-21.99L28.56-21.99L28.56-21.99Q28.65-21.99 28.74-21.90L28.74-21.90L28.86-21.78L28.86-21.78Q29.19-21.33 29.40-20.89L29.40-20.89L29.40-20.89Q29.61-20.46 29.67-19.47L29.67-19.47L29.67-19.47Q29.70-19.08 29.67-18.51L29.67-18.51L29.67-18.51Q29.64-17.94 29.56-17.43L29.56-17.43L29.56-17.43Q29.49-16.92 29.38-16.56L29.38-16.56L29.38-16.56Q29.28-16.20 29.19-16.23L29.19-16.23L29.19-16.23Q29.13-16.23 29.10-16.39L29.10-16.39L29.10-16.39Q29.07-16.56 29.05-16.77L29.05-16.77L29.05-16.77Q29.04-16.98 29.04-17.20L29.04-17.20L29.04-17.20Q29.04-17.43 29.04-17.52L29.04-17.52L29.04-17.52Q29.04-18.03 29.04-18.50L29.04-18.50L29.04-18.50Q29.04-18.96 28.98-19.47ZM39.96-19.86L39.96-19.86L39.96-19.86Q39.93-20.40 39.85-20.88L39.85-20.88L39.85-20.88Q39.78-21.36 39.63-21.87L39.63-21.87L39.63-21.87Q39.60-21.93 39.58-22.02L39.58-22.02L39.58-22.02Q39.57-22.11 39.63-22.08L39.63-22.08L39.63-22.08Q39.69-22.02 39.73-21.99L39.73-21.99L39.73-21.99Q39.78-21.96 39.84-21.93L39.84-21.93L39.90-21.87L39.90-21.87Q40.23-21.45 40.42-21.06L40.42-21.06L40.42-21.06Q40.62-20.67 40.65-19.77L40.65-19.77L40.65-19.77Q40.65-19.44 40.58-18.93L40.58-18.93L40.58-18.93Q40.50-18.42 40.39-17.95L40.39-17.95L40.39-17.95Q40.29-17.49 40.16-17.18L40.16-17.18L40.16-17.18Q40.02-16.86 39.90-16.92L39.90-16.92L39.90-16.92Q39.84-16.95 39.84-17.11L39.84-17.11L39.84-17.11Q39.84-17.28 39.84-17.47L39.84-17.47L39.84-17.47Q39.84-17.67 39.87-17.85L39.87-17.85L39.87-17.85Q39.90-18.03 39.90-18.12L39.90-18.12L39.90-18.12Q39.96-18.60 39.97-19.02L39.97-19.02L39.97-19.02Q39.99-19.44 39.96-19.86ZM41.01-2.10L41.01-2.10L41.01-2.10Q41.19-1.59 41.41-1.17L41.41-1.17L41.41-1.17Q41.64-0.75 41.88-0.33L41.88-0.33L41.88-0.33Q41.91-0.30 41.94-0.22L41.94-0.22L41.94-0.22Q41.97-0.15 41.91-0.15L41.91-0.15L41.91-0.15Q41.82-0.15 41.77-0.18L41.77-0.18L41.77-0.18Q41.73-0.21 41.67-0.24L41.67-0.24L41.67-0.24Q41.61-0.27 41.58-0.30L41.58-0.30L41.58-0.30Q41.16-0.63 40.89-0.93L40.89-0.93L40.89-0.93Q40.62-1.23 40.35-2.01L40.35-2.01L40.35-2.01Q40.26-2.31 40.17-2.76L40.17-2.76L40.17-2.76Q40.08-3.21 40.05-3.63L40.05-3.63L40.05-3.63Q40.02-4.05 40.05-4.35L40.05-4.35L40.05-4.35Q40.08-4.65 40.20-4.65L40.20-4.65L40.20-4.65Q40.23-4.65 40.29-4.51L40.29-4.51L40.29-4.51Q40.35-4.38 40.39-4.21L40.39-4.21L40.39-4.21Q40.44-4.05 40.48-3.88L40.48-3.88L40.48-3.88Q40.53-3.72 40.56-3.66L40.56-3.66L40.56-3.66Q40.71-3.24 40.80-2.85L40.80-2.85L40.80-2.85Q40.89-2.46 41.01-2.10ZM51.87-1.26L51.87-1.26L51.87-1.26Q52.95-1.44 53.95-1.92L53.95-1.92L53.95-1.92Q54.96-2.40 55.77-3.15L55.77-3.15L55.77-3.15Q55.83-3.18 56.01-3.36L56.01-3.36L56.01-3.36Q56.19-3.54 56.25-3.48L56.25-3.48L56.25-3.48Q56.31-3.42 56.22-3.30L56.22-3.30L56.22-3.30Q56.13-3.18 56.07-3.09L56.07-3.09L56.07-3.09Q55.47-2.22 54.49-1.67L54.49-1.67L54.49-1.67Q53.52-1.11 52.47-0.78L52.47-0.78L52.47-0.78Q51.60-0.54 50.61-0.61L50.61-0.61L50.61-0.61Q49.62-0.69 48.75-1.11L48.75-1.11L48.75-1.11Q48.48-1.23 48.42-1.30L48.42-1.30L48.42-1.30Q48.36-1.38 48.42-1.41L48.42-1.41L48.42-1.41Q48.48-1.44 48.61-1.44L48.61-1.44L48.61-1.44Q48.75-1.44 48.87-1.41L48.87-1.41L48.87-1.41Q49.20-1.35 49.63-1.30L49.63-1.30L49.63-1.30Q50.07-1.26 50.50-1.24L50.50-1.24L50.50-1.24Q50.94-1.23 51.30-1.23L51.30-1.23L51.30-1.23Q51.66-1.23 51.87-1.26ZM47.85-10.08L47.85-10.08L47.85-10.08Q47.70-9.03 47.70-8.03L47.70-8.03L47.70-8.03Q47.70-7.02 47.83-6.13L47.83-6.13L47.83-6.13Q47.97-5.25 48.25-4.56L48.25-4.56L48.25-4.56Q48.54-3.87 48.96-3.42L48.96-3.42L48.96-3.42Q49.44-2.94 50.14-2.69L50.14-2.69L50.14-2.69Q50.85-2.43 51.67-2.43L51.67-2.43L51.67-2.43Q52.50-2.43 53.41-2.67L53.41-2.67L53.41-2.67Q54.33-2.91 55.23-3.42L55.23-3.42L55.23-3.42Q55.41-3.54 55.47-3.48L55.47-3.48L55.47-3.48Q55.53-3.42 55.42-3.34L55.42-3.34L55.42-3.34Q55.32-3.27 55.23-3.21L55.23-3.21L55.23-3.21Q54.45-2.61 53.58-2.25L53.58-2.25L53.58-2.25Q52.71-1.89 51.82-1.80L51.82-1.80L51.82-1.80Q50.94-1.71 50.11-1.91L50.11-1.91L50.11-1.91Q49.29-2.10 48.63-2.64L48.63-2.64L48.63-2.64Q48-3.18 47.61-3.94L47.61-3.94L47.61-3.94Q47.22-4.71 47.02-5.63L47.02-5.63L47.02-5.63Q46.83-6.54 46.80-7.53L46.80-7.53L46.80-7.53Q46.77-8.52 46.86-9.48L46.86-9.48L46.86-9.48Q46.98-11.01 47.46-12.57L47.46-12.57L47.46-12.57Q47.94-14.13 48.73-15.45L48.73-15.45L48.73-15.45Q49.53-16.77 50.64-17.76L50.64-17.76L50.64-17.76Q51.75-18.75 53.13-19.14L53.13-19.14L53.13-19.14Q53.82-19.32 54.54-19.29L54.54-19.29L54.54-19.29Q55.26-19.26 55.88-19.02L55.88-19.02L55.88-19.02Q56.49-18.78 56.94-18.31L56.94-18.31L56.94-18.31Q57.39-17.85 57.54-17.19L57.54-17.19L57.54-17.19Q57.69-16.47 57.42-15.79L57.42-15.79L57.42-15.79Q57.15-15.12 56.67-14.63L56.67-14.63L56.67-14.63Q56.19-14.13 55.59-13.92L55.59-13.92L55.59-13.92Q54.99-13.71 54.45-13.92L54.45-13.92L54.45-13.92Q54.42-13.92 54.41-14.01L54.41-14.01L54.41-14.01Q54.39-14.10 54.51-14.07L54.51-14.07L54.51-14.07Q54.87-14.01 55.33-14.23L55.33-14.23L55.33-14.23Q55.80-14.46 56.17-14.85L56.17-14.85L56.17-14.85Q56.55-15.24 56.77-15.78L56.77-15.78L56.77-15.78Q57-16.32 56.91-16.89L56.91-16.89L56.91-16.89Q56.82-17.31 56.53-17.63L56.53-17.63L56.53-17.63Q56.25-17.94 55.80-18.13L55.80-18.13L55.80-18.13Q55.35-18.33 54.80-18.39L54.80-18.39L54.80-18.39Q54.24-18.45 53.64-18.33L53.64-18.33L53.64-18.33Q52.50-18.12 51.52-17.32L51.52-17.32L51.52-17.32Q50.55-16.53 49.80-15.39L49.80-15.39L49.80-15.39Q49.05-14.25 48.54-12.85L48.54-12.85L48.54-12.85Q48.03-11.46 47.85-10.08ZM50.22-0.15L50.22-0.15L50.22-0.15Q50.55-0.12 50.89-0.12L50.89-0.12L50.89-0.12Q51.24-0.12 51.24-0.03L51.24-0.03L51.24-0.03Q51.24 0 51.12 0.01L51.12 0.01L51.12 0.01Q51 0.03 50.86 0.03L50.86 0.03L50.86 0.03Q50.73 0.03 50.58 0.03L50.58 0.03L50.58 0.03Q50.43 0.03 50.40 0.03L50.40 0.03L50.40 0.03Q49.47 0.03 48.57-0.24L48.57-0.24L48.57-0.24Q47.67-0.51 46.91-1.00L46.91-1.00L46.91-1.00Q46.14-1.50 45.54-2.22L45.54-2.22L45.54-2.22Q44.94-2.94 44.64-3.87L44.64-3.87L44.64-3.87Q44.04-5.70 43.95-7.44L43.95-7.44L43.95-7.44Q43.86-9.18 44.10-10.86L44.10-10.86L44.10-10.86Q44.22-11.82 44.56-13.04L44.56-13.04L44.56-13.04Q44.91-14.25 45.49-15.51L45.49-15.51L45.49-15.51Q46.08-16.77 46.96-18L46.96-18L46.96-18Q47.85-19.23 49.08-20.25L49.08-20.25L49.08-20.25Q50.37-21.33 51.94-21.69L51.94-21.69L51.94-21.69Q53.52-22.05 54.96-21.81L54.96-21.81L54.96-21.81Q56.40-21.57 57.51-20.80L57.51-20.80L57.51-20.80Q58.62-20.04 58.98-18.87L58.98-18.87L58.98-18.87Q59.01-18.81 59.04-18.61L59.04-18.61L59.04-18.61Q59.07-18.42 59.01-18.36L59.01-18.36L59.01-18.36Q58.98-18.33 58.92-18.51L58.92-18.51L58.92-18.51Q58.86-18.69 58.80-18.75L58.80-18.75L58.80-18.75Q57.54-20.46 55.95-20.93L55.95-20.93L55.95-20.93Q54.36-21.39 52.80-21.02L52.80-21.02L52.80-21.02Q51.24-20.64 49.86-19.63L49.86-19.63L49.86-19.63Q48.48-18.63 47.67-17.40L47.67-17.40L47.67-17.40Q46.26-15.27 45.52-12.87L45.52-12.87L45.52-12.87Q44.79-10.47 44.85-7.92L44.85-7.92L44.85-7.92Q44.88-6.75 45.10-5.46L45.10-5.46L45.10-5.46Q45.33-4.17 45.99-3L45.99-3L45.99-3Q46.65-1.80 47.80-1.00L47.80-1.00L47.80-1.00Q48.96-0.21 50.22-0.15ZM45.90-11.43L45.90-11.43L45.90-11.43Q46.14-13.02 46.66-14.52L46.66-14.52L46.66-14.52Q47.19-16.02 48.04-17.27L48.04-17.27L48.04-17.27Q48.90-18.51 50.16-19.41L50.16-19.41L50.16-19.41Q51.42-20.31 53.13-20.67L53.13-20.67L53.13-20.67Q53.73-20.79 54.48-20.77L54.48-20.77L54.48-20.77Q55.23-20.76 55.98-20.50L55.98-20.50L55.98-20.50Q56.73-20.25 57.38-19.74L57.38-19.74L57.38-19.74Q58.02-19.23 58.44-18.33L58.44-18.33L58.44-18.33Q58.83-17.46 58.71-16.62L58.71-16.62L58.71-16.62Q58.59-15.78 58.20-15.10L58.20-15.10L58.20-15.10Q57.81-14.43 57.24-13.98L57.24-13.98L57.24-13.98Q56.67-13.53 56.13-13.47L56.13-13.47L56.13-13.47Q55.80-13.41 55.77-13.48L55.77-13.48L55.77-13.48Q55.74-13.56 56.10-13.68L56.10-13.68L56.10-13.68Q56.67-13.86 57.25-14.59L57.25-14.59L57.25-14.59Q57.84-15.33 57.96-16.47L57.96-16.47L57.96-16.47Q58.02-17.04 57.81-17.59L57.81-17.59L57.81-17.59Q57.60-18.15 57.21-18.57L57.21-18.57L57.21-18.57Q56.82-18.99 56.28-19.29L56.28-19.29L56.28-19.29Q55.74-19.59 55.14-19.68L55.14-19.68L55.14-19.68Q53.85-19.86 52.77-19.50L52.77-19.50L52.77-19.50Q51.69-19.14 50.89-18.59L50.89-18.59L50.89-18.59Q50.10-18.03 49.60-17.49L49.60-17.49L49.60-17.49Q49.11-16.95 48.99-16.77L48.99-16.77L48.99-16.77Q48.06-15.60 47.37-14.23L47.37-14.23L47.37-14.23Q46.68-12.87 46.23-11.37L46.23-11.37L46.23-11.37Q46.23-11.34 46.18-11.16L46.18-11.16L46.18-11.16Q46.14-10.98 46.09-10.79L46.09-10.79L46.09-10.79Q46.05-10.59 45.99-10.42L45.99-10.42L45.99-10.42Q45.93-10.26 45.90-10.26L45.90-10.26L45.90-10.26Q45.84-10.26 45.84-10.44L45.84-10.44L45.84-10.44Q45.84-10.62 45.84-10.81L45.84-10.81L45.84-10.81Q45.84-11.01 45.87-11.19L45.87-11.19L45.87-11.19Q45.90-11.37 45.90-11.43ZM72.27-18.30L72.27-18.30L72.27-18.30Q72.24-17.94 72.14-17.45L72.14-17.45L72.14-17.45Q72.03-16.95 71.88-16.52L71.88-16.52L71.88-16.52Q71.73-16.08 71.58-15.78L71.58-15.78L71.58-15.78Q71.43-15.48 71.34-15.54L71.34-15.54L71.34-15.54Q71.31-15.54 71.31-15.69L71.31-15.69L71.31-15.69Q71.31-15.84 71.31-16.04L71.31-16.04L71.31-16.04Q71.31-16.23 71.34-16.41L71.34-16.41L71.34-16.41Q71.37-16.59 71.37-16.68L71.37-16.68L71.37-16.68Q71.46-17.16 71.49-17.58L71.49-17.58L71.49-17.58Q71.52-18 71.58-18.45L71.58-18.45L71.58-18.45Q71.64-19.02 71.66-19.53L71.66-19.53L71.66-19.53Q71.67-20.04 71.58-20.58L71.58-20.58L71.58-20.58Q71.58-20.64 71.55-20.73L71.55-20.73L71.55-20.73Q71.52-20.82 71.58-20.82L71.58-20.82L71.58-20.82Q71.67-20.82 71.79-20.68L71.79-20.68L71.79-20.68Q71.91-20.55 71.94-20.49L71.94-20.49L71.94-20.49Q72.12-20.13 72.22-19.65L72.22-19.65L72.22-19.65Q72.33-19.17 72.27-18.30ZM72.66-20.40L72.66-20.40L72.66-20.40Q73.17-19.20 73.28-18.02L73.28-18.02L73.28-18.02Q73.38-16.83 73.22-15.64L73.22-15.64L73.22-15.64Q73.05-14.46 72.64-13.29L72.64-13.29L72.64-13.29Q72.24-12.12 71.73-11.01L71.73-11.01L71.73-11.01Q71.04-9.51 70.28-8.07L70.28-8.07L70.28-8.07Q69.51-6.63 68.79-5.25L68.79-5.25L68.79-5.25Q68.07-3.87 67.45-2.56L67.45-2.56L67.45-2.56Q66.84-1.26 66.48 0L66.48 0L66.48 0Q66.42 0.15 66.34 0.12L66.34 0.12L66.34 0.12Q66.27 0.09 66.27 0L66.27 0L66.27 0Q66.21-1.44 66.69-2.90L66.69-2.90L66.69-2.90Q67.17-4.35 67.91-5.82L67.91-5.82L67.91-5.82Q68.64-7.29 69.50-8.78L69.50-8.78L69.50-8.78Q70.35-10.26 71.04-11.79L71.04-11.79L71.04-11.79Q71.49-12.75 71.85-13.80L71.85-13.80L71.85-13.80Q72.21-14.85 72.44-15.96L72.44-15.96L72.44-15.96Q72.66-17.07 72.70-18.16L72.70-18.16L72.70-18.16Q72.75-19.26 72.54-20.31L72.54-20.31L72.54-20.31Q72.48-20.58 72.54-20.55L72.54-20.55L72.54-20.55Q72.57-20.55 72.66-20.40ZM62.91-8.67L62.91-8.67L62.91-8.67Q62.91-8.58 62.90-8.29L62.90-8.29L62.90-8.29Q62.88-8.01 62.79-8.01L62.79-8.01L62.79-8.01Q62.73-7.98 62.64-8.23L62.64-8.23L62.64-8.23Q62.55-8.49 62.49-8.64L62.49-8.64L62.49-8.64Q62.37-9.03 62.22-9.58L62.22-9.58L62.22-9.58Q62.07-10.14 61.94-10.72L61.94-10.72L61.94-10.72Q61.80-11.31 61.70-11.88L61.70-11.88L61.70-11.88Q61.59-12.45 61.56-12.87L61.56-12.87L61.56-12.87Q61.53-13.08 61.44-13.70L61.44-13.70L61.44-13.70Q61.35-14.31 61.20-15.15L61.20-15.15L61.20-15.15Q61.05-15.99 60.86-16.95L60.86-16.95L60.86-16.95Q60.66-17.91 60.44-18.79L60.44-18.79L60.44-18.79Q60.21-19.68 59.97-20.38L59.97-20.38L59.97-20.38Q59.73-21.09 59.49-21.42L59.49-21.42L59.49-21.42Q59.34-21.63 59.40-21.69L59.40-21.69L59.40-21.69Q59.46-21.75 59.55-21.68L59.55-21.68L59.55-21.68Q59.64-21.60 59.70-21.54L59.70-21.54L59.70-21.54Q60.18-21.18 60.62-20.52L60.62-20.52L60.62-20.52Q61.05-19.86 61.41-19.11L61.41-19.11L61.41-19.11Q61.77-18.36 62.01-17.56L62.01-17.56L62.01-17.56Q62.25-16.77 62.34-16.14L62.34-16.14L62.34-16.14Q62.61-14.37 62.73-12.39L62.73-12.39L62.73-12.39Q62.85-10.41 62.91-8.67ZM64.80-4.44L64.80-4.44L64.80-4.44Q64.20-6.45 63.84-8.58L63.84-8.58L63.84-8.58Q63.48-10.71 63.21-12.87L63.21-12.87L63.21-12.87Q63-14.46 62.73-16.05L62.73-16.05L62.73-16.05Q62.46-17.64 61.89-19.35L61.89-19.35L61.89-19.35Q61.83-19.50 61.83-19.52L61.83-19.52L61.83-19.52Q61.83-19.53 61.89-19.56L61.89-19.56L61.89-19.56Q61.95-19.56 62.10-19.41L62.10-19.41L62.10-19.41Q62.73-18.78 63.16-17.46L63.16-17.46L63.16-17.46Q63.60-16.14 63.91-14.65L63.91-14.65L63.91-14.65Q64.23-13.17 64.44-11.78L64.44-11.78L64.44-11.78Q64.65-10.38 64.80-9.54L64.80-9.54L64.80-9.54Q64.95-8.85 65.06-8.13L65.06-8.13L65.06-8.13Q65.16-7.41 65.22-6.69L65.22-6.69L65.22-6.69Q65.43-7.50 65.79-8.36L65.79-8.36L65.79-8.36Q66.15-9.21 66.53-10.02L66.53-10.02L66.53-10.02Q66.90-10.83 67.28-11.54L67.28-11.54L67.28-11.54Q67.65-12.24 67.89-12.75L67.89-12.75L67.89-12.75Q68.52-14.10 69.33-15.46L69.33-15.46L69.33-15.46Q70.14-16.83 70.83-17.76L70.83-17.76L70.83-17.76Q71.10-18.12 71.13-18.12L71.13-18.12L71.13-18.12Q71.19-18.06 71.14-17.93L71.14-17.93L71.14-17.93Q71.10-17.79 71.04-17.64L71.04-17.64L71.04-17.64Q70.44-15.48 69.41-13.44L69.41-13.44L69.41-13.44Q68.37-11.40 67.32-9.33L67.32-9.33L67.32-9.33Q66.72-8.19 66.12-7.02L66.12-7.02L66.12-7.02Q65.52-5.85 65.22-4.41L65.22-4.41L65.22-4.41Q65.16-4.08 65.06-4.00L65.06-4.00L65.06-4.00Q64.95-3.93 64.80-4.44ZM65.73 0L65.73 0L65.73 0Q65.82 0.06 65.78 0.07L65.78 0.07L65.78 0.07Q65.73 0.09 65.64 0.03L65.64 0.03L65.64 0.03Q64.47-0.51 63.63-1.45L63.63-1.45L63.63-1.45Q62.79-2.40 62.20-3.57L62.20-3.57L62.20-3.57Q61.62-4.74 61.26-6.06L61.26-6.06L61.26-6.06Q60.90-7.38 60.66-8.67L60.66-8.67L60.66-8.67Q60.33-10.47 60.15-12.27L60.15-12.27L60.15-12.27Q59.97-14.07 59.74-15.79L59.74-15.79L59.74-15.79Q59.52-17.52 59.22-19.09L59.22-19.09L59.22-19.09Q58.92-20.67 58.38-21.99L58.38-21.99L58.38-21.99Q58.35-22.05 58.34-22.09L58.34-22.09L58.34-22.09Q58.32-22.14 58.38-22.20L58.38-22.20L58.38-22.20Q58.41-22.23 58.47-22.14L58.47-22.14L58.47-22.14Q58.53-22.05 58.56-21.99L58.56-21.99L58.56-21.99Q59.49-20.73 59.95-19.13L59.95-19.13L59.95-19.13Q60.42-17.52 60.66-15.73L60.66-15.73L60.66-15.73Q60.90-13.95 61.06-12.07L61.06-12.07L61.06-12.07Q61.23-10.20 61.56-8.43L61.56-8.43L61.56-8.43Q61.77-7.29 62.13-6.10L62.13-6.10L62.13-6.10Q62.49-4.92 63-3.79L63-3.79L63-3.79Q63.51-2.67 64.19-1.69L64.19-1.69L64.19-1.69Q64.86-0.72 65.73 0ZM65.58-0.75L65.58-0.75L65.58-0.75Q65.40-0.93 65.11-1.23L65.11-1.23L65.11-1.23Q64.83-1.53 64.59-1.86L64.59-1.86L64.59-1.86Q64.41-2.16 64.20-2.65L64.20-2.65L64.20-2.65Q63.99-3.15 63.83-3.63L63.83-3.63L63.83-3.63Q63.66-4.11 63.59-4.48L63.59-4.48L63.59-4.48Q63.51-4.86 63.60-4.89L63.60-4.89L63.60-4.89Q63.63-4.89 63.73-4.75L63.73-4.75L63.73-4.75Q63.84-4.62 63.93-4.44L63.93-4.44L63.93-4.44Q64.02-4.26 64.11-4.09L64.11-4.09L64.11-4.09Q64.20-3.93 64.26-3.87L64.26-3.87L64.26-3.87Q64.50-3.45 64.68-3.10L64.68-3.10L64.68-3.10Q64.86-2.76 65.01-2.37L65.01-2.37L65.01-2.37Q65.19-1.98 65.39-1.69L65.39-1.69L65.39-1.69Q65.58-1.41 65.61-1.44L65.61-1.44L65.61-1.44Q65.64-1.44 65.63-1.60L65.63-1.60L65.63-1.60Q65.61-1.77 65.59-1.98L65.59-1.98L65.59-1.98Q65.58-2.19 65.56-2.38L65.56-2.38L65.56-2.38Q65.55-2.58 65.55-2.67L65.55-2.67L65.55-2.67Q65.49-3.81 65.75-4.71L65.75-4.71L65.75-4.71Q66-5.61 66.33-6.36L66.33-6.36L66.33-6.36Q67.02-7.89 67.95-9.42L67.95-9.42L67.95-9.42Q68.88-10.95 69.84-12.30L69.84-12.30L69.84-12.30Q69.90-12.36 70.08-12.57L70.08-12.57L70.08-12.57Q70.26-12.78 70.32-12.75L70.32-12.75L70.32-12.75Q70.41-12.72 70.34-12.46L70.34-12.46L70.34-12.46Q70.26-12.21 70.23-12.12L70.23-12.12L70.23-12.12Q70.11-11.76 69.92-11.28L69.92-11.28L69.92-11.28Q69.72-10.80 69.51-10.28L69.51-10.28L69.51-10.28Q69.30-9.75 69.08-9.27L69.08-9.27L69.08-9.27Q68.85-8.79 68.67-8.46L68.67-8.46L68.67-8.46Q68.58-8.28 68.34-7.77L68.34-7.77L68.34-7.77Q68.10-7.26 67.80-6.52L67.80-6.52L67.80-6.52Q67.50-5.79 67.17-4.95L67.17-4.95L67.17-4.95Q66.84-4.11 66.56-3.31L66.56-3.31L66.56-3.31Q66.27-2.52 66.09-1.86L66.09-1.86L66.09-1.86Q65.91-1.20 65.91-0.81L65.91-0.81L65.91-0.81Q65.91-0.60 65.82-0.60L65.82-0.60L65.82-0.60Q65.73-0.60 65.58-0.75ZM79.89-12.48L79.89-12.48L79.89-12.48Q79.86-12.45 79.74-12.34L79.74-12.34L79.74-12.34Q79.62-12.24 79.53-12.30L79.53-12.30L79.53-12.30Q79.47-12.36 79.50-12.49L79.50-12.49L79.50-12.49Q79.53-12.63 79.56-12.66L79.56-12.66L79.56-12.66Q79.80-13.14 79.92-13.84L79.92-13.84L79.92-13.84Q80.04-14.55 79.89-14.97L79.89-14.97L79.89-14.97Q79.71-15.54 79.16-15.73L79.16-15.73L79.16-15.73Q78.60-15.93 77.92-15.82L77.92-15.82L77.92-15.82Q77.25-15.72 76.65-15.33L76.65-15.33L76.65-15.33Q76.05-14.94 75.78-14.31L75.78-14.31L75.78-14.31Q75.75-14.25 75.70-14.22L75.70-14.22L75.70-14.22Q75.66-14.19 75.63-14.25L75.63-14.25L75.63-14.25Q75.57-14.31 75.57-14.43L75.57-14.43L75.57-14.43Q75.57-14.94 75.86-15.42L75.86-15.42L75.86-15.42Q76.14-15.90 76.59-16.27L76.59-16.27L76.59-16.27Q77.04-16.65 77.61-16.84L77.61-16.84L77.61-16.84Q78.18-17.04 78.78-17.01L78.78-17.01L78.78-17.01Q79.71-16.92 80.20-16.41L80.20-16.41L80.20-16.41Q80.70-15.90 80.82-15.21L80.82-15.21L80.82-15.21Q80.94-14.52 80.70-13.77L80.70-13.77L80.70-13.77Q80.46-13.02 79.89-12.48ZM78.90-12.96L78.90-12.96L78.90-12.96Q78.45-12.18 77.88-11.32L77.88-11.32L77.88-11.32Q77.31-10.47 76.80-9.30L76.80-9.30L76.80-9.30Q76.68-9.21 76.61-9.15L76.61-9.15L76.61-9.15Q76.53-9.09 76.44-9L76.44-9L76.44-9Q76.86-10.32 77.41-11.43L77.41-11.43L77.41-11.43Q77.97-12.54 78.30-13.29L78.30-13.29L78.30-13.29Q78.69-14.13 78.44-14.31L78.44-14.31L78.44-14.31Q78.18-14.49 77.69-14.32L77.69-14.32L77.69-14.32Q77.19-14.16 76.66-13.83L76.66-13.83L76.66-13.83Q76.14-13.50 75.96-13.32L75.96-13.32L75.96-13.32Q75.84-13.20 75.78-13.29L75.78-13.29L75.78-13.44L75.78-13.44Q76.08-14.40 76.95-14.94L76.95-14.94L76.95-14.94Q77.82-15.48 78.66-15.33L78.66-15.33L78.66-15.33Q79.08-15.24 79.25-15L79.25-15L79.25-15Q79.41-14.76 79.41-14.41L79.41-14.41L79.41-14.41Q79.41-14.07 79.26-13.70L79.26-13.70L79.26-13.70Q79.11-13.32 78.90-12.96ZM82.89-6.36L82.89-6.36L82.89-6.36Q82.98-5.40 82.81-4.56L82.81-4.56L82.81-4.56Q82.65-3.72 82.35-3.04L82.35-3.04L82.35-3.04Q82.05-2.37 81.70-1.88L81.70-1.88L81.70-1.88Q81.36-1.38 81.09-1.11L81.09-1.11L81.09-1.11Q80.46-0.48 79.58-0.14L79.58-0.14L79.58-0.14Q78.69 0.21 77.76 0.30L77.76 0.30L77.76 0.30Q76.83 0.39 76.00 0.30L76.00 0.30L76.00 0.30Q75.18 0.21 74.67 0L74.67 0L74.67 0Q74.28-0.15 74.34-0.33L74.34-0.33L74.34-0.33Q74.37-0.42 74.52-0.38L74.52-0.38L74.52-0.38Q74.67-0.33 74.79-0.30L74.79-0.30L74.79-0.30Q75.93-0.15 77.05-0.38L77.05-0.38L77.05-0.38Q78.18-0.60 79.13-1.17L79.13-1.17L79.13-1.17Q80.07-1.74 80.80-2.61L80.80-2.61L80.80-2.61Q81.54-3.48 81.90-4.65L81.90-4.65L81.90-4.65Q82.11-5.34 82.00-6.36L82.00-6.36L82.00-6.36Q81.90-7.38 81.38-8.23L81.38-8.23L81.38-8.23Q80.85-9.09 79.83-9.53L79.83-9.53L79.83-9.53Q78.81-9.96 77.22-9.45L77.22-9.45L77.22-9.45Q77.34-9.66 77.52-9.91L77.52-9.91L77.52-9.91Q77.70-10.17 77.86-10.37L77.86-10.37L77.86-10.37Q78.03-10.56 78.16-10.68L78.16-10.68L78.16-10.68Q78.30-10.80 78.36-10.77L78.36-10.77L78.36-10.77Q78.42-10.71 78.36-10.50L78.36-10.50L78.36-10.50Q78.30-10.29 78.21-10.14L78.21-10.14L78.21-10.14Q78.42-10.20 78.70-10.20L78.70-10.20L78.70-10.20Q78.99-10.20 79.14-10.20L79.14-10.20L79.14-10.20Q79.56-10.65 79.98-11.13L79.98-11.13L79.98-11.13Q80.40-11.61 80.75-12.20L80.75-12.20L80.75-12.20Q81.09-12.78 81.27-13.48L81.27-13.48L81.27-13.48Q81.45-14.19 81.42-15.12L81.42-15.12L81.42-15.12Q81.39-15.69 81.14-16.11L81.14-16.11L81.14-16.11Q80.88-16.53 80.50-16.80L80.50-16.80L80.50-16.80Q80.13-17.07 79.69-17.22L79.69-17.22L79.69-17.22Q79.26-17.37 78.87-17.40L78.87-17.40L78.87-17.40Q78.09-17.46 77.49-17.28L77.49-17.28L77.49-17.28Q76.89-17.10 76.35-16.77L76.35-16.77L76.35-16.77Q76.20-16.65 76.17-16.68L76.17-16.68L76.17-16.68Q76.14-16.74 76.19-16.80L76.19-16.80L76.19-16.80Q76.23-16.86 76.26-16.92L76.26-16.92L76.26-16.92Q76.41-17.19 76.88-17.50L76.88-17.50L76.88-17.50Q77.34-17.82 77.98-17.98L77.98-17.98L77.98-17.98Q78.63-18.15 79.41-18.09L79.41-18.09L79.41-18.09Q80.19-18.03 80.97-17.55L80.97-17.55L80.97-17.55Q81.99-16.92 82.29-15.90L82.29-15.90L82.29-15.90Q82.59-14.88 82.38-13.79L82.38-13.79L82.38-13.79Q82.17-12.69 81.56-11.65L81.56-11.65L81.56-11.65Q80.94-10.62 80.13-9.99L80.13-9.99L80.13-9.99Q81.12-9.66 81.94-8.70L81.94-8.70L81.94-8.70Q82.77-7.74 82.89-6.36ZM81.09-7.89L81.09-7.89L81.09-7.89Q81.57-7.02 81.56-6.12L81.56-6.12L81.56-6.12Q81.54-5.22 81.22-4.44L81.22-4.44L81.22-4.44Q80.91-3.66 80.39-3.04L80.39-3.04L80.39-3.04Q79.86-2.43 79.29-2.13L79.29-2.13L79.29-2.13Q79.23-2.07 79.02-2.01L79.02-2.01L79.02-2.01Q78.81-1.95 78.78-2.01L78.78-2.01L78.78-2.01Q78.75-2.07 78.86-2.22L78.86-2.22L78.86-2.22Q78.96-2.37 79.02-2.43L79.02-2.43L79.02-2.43Q79.20-2.64 79.42-2.97L79.42-2.97L79.42-2.97Q79.65-3.30 79.86-3.69L79.86-3.69L79.86-3.69Q80.07-4.08 80.22-4.47L80.22-4.47L80.22-4.47Q80.37-4.86 80.43-5.19L80.43-5.19L80.43-5.19Q80.46-5.28 80.46-5.58L80.46-5.58L80.46-5.58Q80.46-5.88 80.40-6.27L80.40-6.27L80.40-6.27Q80.34-6.66 80.14-7.08L80.14-7.08L80.14-7.08Q79.95-7.50 79.56-7.83L79.56-7.83L79.56-7.83Q79.14-8.16 78.66-8.27L78.66-8.27L78.66-8.27Q78.18-8.37 77.76-8.34L77.76-8.34L77.76-8.34Q77.34-8.31 77.00-8.17L77.00-8.17L77.00-8.17Q76.65-8.04 76.53-7.89L76.53-7.89L76.53-7.89Q76.38-7.74 76.38-7.86L76.38-7.86L76.38-7.86Q76.38-7.98 76.41-8.07L76.41-8.07L76.41-8.07Q76.59-8.52 77.14-8.89L77.14-8.89L77.14-8.89Q77.70-9.27 78.48-9.33L78.48-9.33L78.48-9.33Q79.26-9.36 80.01-8.91L80.01-8.91L80.01-8.91Q80.76-8.46 81.09-7.89ZM79.68-6.99L79.68-6.99L79.68-6.99Q79.95-6.39 79.88-5.68L79.88-5.68L79.88-5.68Q79.80-4.98 79.44-4.27L79.44-4.27L79.44-4.27Q79.08-3.57 78.48-2.97L78.48-2.97L78.48-2.97Q77.88-2.37 77.11-2.01L77.11-2.01L77.11-2.01Q76.35-1.65 75.45-1.60L75.45-1.60L75.45-1.60Q74.55-1.56 73.62-1.98L73.62-1.98L73.62-1.98Q73.44-2.07 73.47-2.28L73.47-2.28L73.47-2.28Q73.50-2.49 73.74-2.37L73.74-2.37L73.74-2.37Q74.67-1.95 75.67-2.31L75.67-2.31L75.67-2.31Q76.68-2.67 77.47-3.39L77.47-3.39L77.47-3.39Q78.27-4.11 78.67-5.00L78.67-5.00L78.67-5.00Q79.08-5.88 78.81-6.54L78.81-6.54L78.81-6.54Q78.57-7.11 77.80-7.26L77.80-7.26L77.80-7.26Q77.04-7.41 76.38-6.84L76.38-6.84L76.38-6.84Q76.23-6.72 76.25-6.81L76.25-6.81L76.25-6.81Q76.26-6.90 76.32-6.99L76.32-6.99L76.32-6.99Q76.59-7.47 77.05-7.71L77.05-7.71L77.05-7.71Q77.52-7.95 78.03-7.96L78.03-7.96L78.03-7.96Q78.54-7.98 78.99-7.74L78.99-7.74L78.99-7.74Q79.44-7.50 79.68-6.99ZM76.89-1.08L76.89-1.08L76.89-1.08Q76.89-0.93 76.47-0.79L76.47-0.79L76.47-0.79Q76.05-0.66 75.78-0.63L75.78-0.63L75.78-0.63Q74.91-0.57 74.40-0.73L74.40-0.73L74.40-0.73Q73.89-0.90 73.32-1.32L73.32-1.32L73.32-1.32Q73.11-1.50 73.08-1.56L73.08-1.56L73.08-1.56Q73.05-1.62 73.11-1.64L73.11-1.64L73.11-1.64Q73.17-1.65 73.28-1.62L73.28-1.62L73.28-1.62Q73.38-1.59 73.47-1.56L73.47-1.56L73.47-1.56Q73.95-1.32 74.55-1.24L74.55-1.24L74.55-1.24Q75.15-1.17 75.66-1.16L75.66-1.16L75.66-1.16Q76.17-1.14 76.53-1.14L76.53-1.14L76.53-1.14Q76.89-1.14 76.89-1.08Z" fill="#0a0a0a"></path></g></g><style>text {
  font-size: 64px;
  font-family: Arial Black;
  dominant-baseline: central;
  text-anchor: middle;
}</style></svg>